<svg id="Layer_1" data-name="Layer 1" xmlns="http://www.w3.org/2000/svg" viewBox="0 0 139.76 168.38"><defs><style>.cls-1{fill:#fff;}</style></defs><path class="cls-1" d="M147.79,187.51v1.54h-59V124.48H86.45v1a1.25,1.25,0,0,1-1.24,1.24h-5A1.24,1.24,0,0,1,79,125.43v-1H77.3v67.25h82V106l-2.39.39-9.1,1.49Zm-61.34-1.23a1.24,1.24,0,0,1-1.24,1.23h-5A1.23,1.23,0,0,1,79,186.28V183.1a1.24,1.24,0,0,1,1.23-1.24h5a1.25,1.25,0,0,1,1.24,1.24Zm0-10.14a1.24,1.24,0,0,1-1.24,1.23h-5A1.23,1.23,0,0,1,79,176.14V173a1.23,1.23,0,0,1,1.23-1.24h5A1.24,1.24,0,0,1,86.45,173Zm0-10.14a1.24,1.24,0,0,1-1.24,1.23h-5A1.23,1.23,0,0,1,79,166v-3.19a1.23,1.23,0,0,1,1.23-1.23h5a1.24,1.24,0,0,1,1.24,1.23Zm0-10.14a1.24,1.24,0,0,1-1.24,1.23h-5A1.23,1.23,0,0,1,79,155.86v-3.19a1.23,1.23,0,0,1,1.23-1.23h5a1.24,1.24,0,0,1,1.24,1.23Zm0-10.14A1.24,1.24,0,0,1,85.21,147h-5A1.23,1.23,0,0,1,79,145.72v-3.19a1.23,1.23,0,0,1,1.23-1.23h5a1.24,1.24,0,0,1,1.24,1.23Zm0-10.14a1.24,1.24,0,0,1-1.24,1.23h-5A1.23,1.23,0,0,1,79,135.58v-3.19a1.23,1.23,0,0,1,1.23-1.23h5a1.24,1.24,0,0,1,1.24,1.23Zm63.35-23.47a1.23,1.23,0,0,1,1.23-1.23h5a1.23,1.23,0,0,1,1.23,1.23v3.18a1.24,1.24,0,0,1-1.23,1.24h-5a1.24,1.24,0,0,1-1.23-1.24Zm0,10.14A1.23,1.23,0,0,1,151,121h5a1.23,1.23,0,0,1,1.23,1.23v3.18a1.24,1.24,0,0,1-1.23,1.24h-5a1.24,1.24,0,0,1-1.23-1.24Zm0,10.14a1.23,1.23,0,0,1,1.23-1.23h5a1.23,1.23,0,0,1,1.23,1.23v3.19a1.23,1.23,0,0,1-1.23,1.23h-5a1.23,1.23,0,0,1-1.23-1.23Zm0,10.14A1.23,1.23,0,0,1,151,141.3h5a1.23,1.23,0,0,1,1.23,1.23v3.19A1.23,1.23,0,0,1,156,147h-5a1.23,1.23,0,0,1-1.23-1.23Zm0,10.14a1.23,1.23,0,0,1,1.23-1.23h5a1.23,1.23,0,0,1,1.23,1.23v3.19a1.23,1.23,0,0,1-1.23,1.23h-5a1.23,1.23,0,0,1-1.23-1.23Zm0,10.14a1.23,1.23,0,0,1,1.23-1.23h5a1.23,1.23,0,0,1,1.23,1.23V166a1.23,1.23,0,0,1-1.23,1.23h-5A1.23,1.23,0,0,1,149.8,166Zm0,10.15a1.23,1.23,0,0,1,1.23-1.24h5a1.23,1.23,0,0,1,1.23,1.24v3.18a1.23,1.23,0,0,1-1.23,1.23h-5a1.23,1.23,0,0,1-1.23-1.23Zm1.23,8.9h5a1.24,1.24,0,0,1,1.23,1.24v3.18a1.23,1.23,0,0,1-1.23,1.23h-5a1.23,1.23,0,0,1-1.23-1.23V183.1A1.24,1.24,0,0,1,151,181.86Z" transform="translate(-38.38 -23.35)"/><polygon class="cls-1" points="109.41 84.54 109.41 84.54 118.52 83.05 115.12 83.6 109.41 84.54"/><path class="cls-1" d="M153.5,107l24.52-4,.12-2-20.87,3.24v1a1.23,1.23,0,0,1-1.23,1.23h-5a1.21,1.21,0,0,1-1.2-1.1l-2,.32v2.28Z" transform="translate(-38.38 -23.35)"/><path class="cls-1" d="M127.72,111.17l2.34-.39v-.86a1.24,1.24,0,0,1,1.24-1.23h5a1.21,1.21,0,0,1,1.16.88l10.33-1.69V105.6l-20.07,3.11Z" transform="translate(-38.38 -23.35)"/><rect class="cls-1" x="104.25" y="80.15" height="10.46"/><path class="cls-1" d="M151,106.38h5a1.23,1.23,0,0,0,1.23-1.23v-1l-7.44,1.15A1.21,1.21,0,0,0,151,106.38Z" transform="translate(-38.38 -23.35)"/><polygon class="cls-1" points="109.41 84.54 115.12 83.6 109.41 84.54 109.41 84.54"/><path class="cls-1" d="M79,122.25A1.23,1.23,0,0,1,80.21,121h5a1.24,1.24,0,0,1,1.24,1.23v2.23h2.34v-7L77.3,119.41v5.07H79Z" transform="translate(-38.38 -23.35)"/><path class="cls-1" d="M88.79,114.74l-2.34.37v.18a1.25,1.25,0,0,1-1.24,1.24h-5a1.21,1.21,0,0,1-.82-.33l-2.09.33v2.88l11.49-1.88Z" transform="translate(-38.38 -23.35)"/><polygon class="cls-1" points="89.34 87.82 89.34 85.36 50.42 91.4 50.42 94.19 89.34 87.82"/><path class="cls-1" d="M85.21,116.53a1.25,1.25,0,0,0,1.24-1.24v-.18l-7.06,1.09a1.21,1.21,0,0,0,.82.33Z" transform="translate(-38.38 -23.35)"/><path class="cls-1" d="M137.46,109.57a1.21,1.21,0,0,0-1.16-.88h-5a1.24,1.24,0,0,0-1.24,1.23v.86l.46-.07Z" transform="translate(-38.38 -23.35)"/><polygon class="cls-1" points="99.09 86.22 99.09 86.22 92.14 87.36 99.09 86.22"/><polygon class="cls-1" points="18.86 85.72 18.91 85.72 18.86 85.72 18.86 85.72"/><path class="cls-1" d="M68.72,27.56V26h59V90.59h2.34v-1a1.24,1.24,0,0,1,1.24-1.23h5a1.23,1.23,0,0,1,1.23,1.23v1h1.68V23.35h-82v85.72h.05l11.44-1.87Zm61.34,1.23a1.24,1.24,0,0,1,1.24-1.23h5a1.23,1.23,0,0,1,1.23,1.23V32a1.23,1.23,0,0,1-1.23,1.23h-5A1.24,1.24,0,0,1,130.06,32Zm0,10.14a1.24,1.24,0,0,1,1.24-1.23h5a1.23,1.23,0,0,1,1.23,1.23v3.19a1.23,1.23,0,0,1-1.23,1.23h-5a1.24,1.24,0,0,1-1.24-1.23Zm0,10.15a1.25,1.25,0,0,1,1.24-1.24h5a1.24,1.24,0,0,1,1.23,1.24v3.18a1.23,1.23,0,0,1-1.23,1.23h-5a1.24,1.24,0,0,1-1.24-1.23Zm0,10.14A1.25,1.25,0,0,1,131.3,58h5a1.24,1.24,0,0,1,1.23,1.24V62.4a1.23,1.23,0,0,1-1.23,1.23h-5a1.24,1.24,0,0,1-1.24-1.23Zm0,10.14a1.24,1.24,0,0,1,1.24-1.23h5a1.23,1.23,0,0,1,1.23,1.23v3.18a1.24,1.24,0,0,1-1.23,1.24h-5a1.25,1.25,0,0,1-1.24-1.24Zm0,10.14a1.24,1.24,0,0,1,1.24-1.23h5a1.23,1.23,0,0,1,1.23,1.23v3.18a1.24,1.24,0,0,1-1.23,1.24h-5a1.25,1.25,0,0,1-1.24-1.24ZM66.71,103a1.23,1.23,0,0,1-1.23,1.23h-5A1.23,1.23,0,0,1,59.24,103V99.78a1.23,1.23,0,0,1,1.23-1.23h5a1.23,1.23,0,0,1,1.23,1.23Zm0-10.15a1.23,1.23,0,0,1-1.23,1.24h-5a1.23,1.23,0,0,1-1.23-1.24V89.64a1.23,1.23,0,0,1,1.23-1.23h5a1.23,1.23,0,0,1,1.23,1.23Zm0-10.14a1.24,1.24,0,0,1-1.23,1.24h-5a1.24,1.24,0,0,1-1.23-1.24V79.5a1.23,1.23,0,0,1,1.23-1.23h5a1.23,1.23,0,0,1,1.23,1.23Zm0-10.14a1.24,1.24,0,0,1-1.23,1.24h-5a1.24,1.24,0,0,1-1.23-1.24V69.36a1.23,1.23,0,0,1,1.23-1.23h5a1.23,1.23,0,0,1,1.23,1.23Zm0-10.14a1.23,1.23,0,0,1-1.23,1.23h-5a1.23,1.23,0,0,1-1.23-1.23V59.22A1.24,1.24,0,0,1,60.47,58h5a1.24,1.24,0,0,1,1.23,1.24Zm0-10.14a1.23,1.23,0,0,1-1.23,1.23h-5a1.23,1.23,0,0,1-1.23-1.23V49.08a1.24,1.24,0,0,1,1.23-1.24h5a1.24,1.24,0,0,1,1.23,1.24Zm0-10.14a1.23,1.23,0,0,1-1.23,1.23h-5a1.23,1.23,0,0,1-1.23-1.23V38.93a1.23,1.23,0,0,1,1.23-1.23h5a1.23,1.23,0,0,1,1.23,1.23Zm0-10.14a1.23,1.23,0,0,1-1.23,1.23h-5A1.23,1.23,0,0,1,59.24,32V28.79a1.23,1.23,0,0,1,1.23-1.23h5a1.23,1.23,0,0,1,1.23,1.23Z" transform="translate(-38.38 -23.35)"/><path class="cls-1" d="M137.53,92.82a1.23,1.23,0,0,1-1.23,1.24h-5a1.24,1.24,0,0,1-1.24-1.24V90.59h-2.34v7l11.49-1.88V90.59h-1.68Z" transform="translate(-38.38 -23.35)"/><path class="cls-1" d="M38.49,112.14l-.11,2L59.24,111v-1a1.23,1.23,0,0,1,1.23-1.23h5a1.23,1.23,0,0,1,1.21,1.1l2-.31v-2.29Z" transform="translate(-38.38 -23.35)"/><path class="cls-1" d="M127.72,100.33l2.34-.36v-.19a1.24,1.24,0,0,1,1.24-1.23h5a1.25,1.25,0,0,1,.82.32l2.09-.32V95.66l-11.49,1.88Z" transform="translate(-38.38 -23.35)"/><path class="cls-1" d="M88.79,103.91l-2.34.38v.86a1.24,1.24,0,0,1-1.24,1.23h-5a1.2,1.2,0,0,1-1.16-.88l-10.33,1.69v2.29l20.07-3.11Z" transform="translate(-38.38 -23.35)"/><polygon class="cls-1" points="89.34 74.19 50.42 80.56 50.42 83.02 89.34 76.98 89.34 74.19"/><path class="cls-1" d="M80.21,106.38h5a1.24,1.24,0,0,0,1.24-1.23v-.86l-7.4,1.21A1.2,1.2,0,0,0,80.21,106.38Z" transform="translate(-38.38 -23.35)"/><path class="cls-1" d="M131.3,98.55a1.24,1.24,0,0,0-1.24,1.23V100l7.06-1.1a1.25,1.25,0,0,0-.82-.32Z" transform="translate(-38.38 -23.35)"/><path class="cls-1" d="M65.48,108.69h-5a1.23,1.23,0,0,0-1.23,1.23v1l7.45-1.16A1.23,1.23,0,0,0,65.48,108.69Z" transform="translate(-38.38 -23.35)"/><path class="cls-1" d="M102.64,46.39H82.24V40H114.1l-22,36.84H113.8v6.36H80.56Z" transform="translate(-38.38 -23.35)"/><path class="cls-1" d="M107.18,150.54l-1.68-1.68v26.57H98.24V131.58h.12l20.1,22.32,20.1-22.32h.12v43.85h-7.2V148.86l-1.74,1.68c-3.72,4.38-7.5,8.7-11.28,13Z" transform="translate(-38.38 -23.35)"/></svg>